<?xml version="1.0" encoding="UTF-8"?>
<svg width="31px" height="32px" viewBox="0 0 31 32" version="1.1" xmlns="http://www.w3.org/2000/svg" xmlns:xlink="http://www.w3.org/1999/xlink">
    <!-- Generator: Sketch 42 (36781) - http://www.bohemiancoding.com/sketch -->
    <title></title>
    <desc>Created with Sketch.</desc>
    <defs></defs>
    <g id="Symbols" stroke="none" stroke-width="1" fill="none" fill-rule="evenodd">
        <g id="Success-alert" transform="translate(-40.000000, -20.000000)" fill="#2E8540">
            <path d="M65.7946736,32.8883737 C65.7946736,32.5468554 65.6741377,32.2053371 65.433066,31.9642654 L63.6049389,30.1562275 C63.3638671,29.9151558 63.0424382,29.7745307 62.7009199,29.7745307 C62.3594017,29.7745307 62.0379727,29.9151558 61.796901,30.1562275 L53.6004626,38.3325766 L49.0602787,33.7923926 C48.8192069,33.5513209 48.497778,33.4106957 48.1562597,33.4106957 C47.8147415,33.4106957 47.4933125,33.5513209 47.2522408,33.7923926 L45.4241136,35.6004305 C45.1830419,35.8415022 45.062506,36.1830204 45.062506,36.5245387 C45.062506,36.866057 45.1830419,37.1874859 45.4241136,37.4285576 L52.6964437,44.7008877 C52.9375154,44.9419594 53.2790337,45.0825846 53.6004626,45.0825846 C53.9419809,45.0825846 54.2834992,44.9419594 54.5245709,44.7008877 L65.433066,33.7923926 C65.6741377,33.5513209 65.7946736,33.2298919 65.7946736,32.8883737 Z M70.8571796,36.1428418 C70.8571796,44.6607091 63.9464571,51.5714316 55.4285898,51.5714316 C46.9107225,51.5714316 40,44.6607091 40,36.1428418 C40,27.6249745 46.9107225,20.714252 55.4285898,20.714252 C63.9464571,20.714252 70.8571796,27.6249745 70.8571796,36.1428418 Z" id=""></path>
        </g>
    </g>
</svg>