<?xml version="1.0" encoding="UTF-8"?>
<svg width="37px" height="34px" viewBox="0 0 37 34" version="1.1" xmlns="http://www.w3.org/2000/svg" xmlns:xlink="http://www.w3.org/1999/xlink">
    <!-- Generator: Sketch 42 (36781) - http://www.bohemiancoding.com/sketch -->
    <title></title>
    <desc>Created with Sketch.</desc>
    <defs></defs>
    <g id="Symbols" stroke="none" stroke-width="1" fill="none" fill-rule="evenodd">
        <g id="Warning-alert" transform="translate(-40.000000, -20.000000)" fill="#FDB81E">
            <path d="M61.0714531,47.7656211 L61.0714531,43.9486523 C61.0714531,43.5870447 60.7902028,43.2857051 60.4285952,43.2857051 L56.5714477,43.2857051 C56.2098402,43.2857051 55.9285898,43.5870447 55.9285898,43.9486523 L55.9285898,47.7656211 C55.9285898,48.1272287 56.2098402,48.4285684 56.5714477,48.4285684 L60.4285952,48.4285684 C60.7902028,48.4285684 61.0714531,48.1272287 61.0714531,47.7656211 Z M61.0312745,40.2522193 L61.392882,31.0312262 C61.392882,30.9106903 61.3326141,30.7499759 61.191989,30.6495293 C61.0714531,30.5490828 60.8906493,30.4285469 60.7098455,30.4285469 L56.2901974,30.4285469 C56.1093936,30.4285469 55.9285898,30.5490828 55.808054,30.6495293 C55.6674288,30.7499759 55.6071609,30.950869 55.6071609,31.0714048 L55.9486791,40.2522193 C55.9486791,40.5133804 56.2500188,40.7142735 56.6317157,40.7142735 L60.3482379,40.7142735 C60.7098455,40.7142735 61.0111852,40.5133804 61.0312745,40.2522193 Z M60.7500241,21.4888041 L76.178614,49.7745521 C76.6205788,50.5580352 76.6004895,51.5223221 76.1384353,52.3058051 C75.6763812,53.0892882 74.8326302,53.5714316 73.9286113,53.5714316 L43.0714316,53.5714316 C42.1674127,53.5714316 41.3236617,53.0892882 40.8616076,52.3058051 C40.3995535,51.5223221 40.3794641,50.5580352 40.821429,49.7745521 L56.2500188,21.4888041 C56.6919836,20.6651424 57.5558239,20.1428204 58.5000215,20.1428204 C59.444219,20.1428204 60.3080593,20.6651424 60.7500241,21.4888041 Z" id=""></path>
        </g>
    </g>
</svg>