<?xml version="1.0" encoding="utf-8"?>
<!-- Generator: Adobe Illustrator 15.0.2, SVG Export Plug-In . SVG Version: 6.00 Build 0)  -->
<!DOCTYPE svg PUBLIC "-//W3C//DTD SVG 1.1//EN" "http://www.w3.org/Graphics/SVG/1.1/DTD/svg11.dtd">
<svg version="1.1" id="Layer_1" xmlns="http://www.w3.org/2000/svg" xmlns:xlink="http://www.w3.org/1999/xlink" x="0px" y="0px"
	 width="418px" height="108px" viewBox="0 0 418 108" enable-background="new 0 0 418 108" xml:space="preserve">
<g>
	<path fill-rule="evenodd" clip-rule="evenodd" fill="#FFFFFF" d="M229.664,14.35c1.615-0.282,1.722,0.945,3,1
		c-0.605,2.062,1.613,6.947-2,6c-0.409-2.409,1.826-2.174,1-5c-3.729-1.063-1.583,3.75-5,3
		C227.25,17.269,228.766,16.118,229.664,14.35z"/>
	<path fill-rule="evenodd" clip-rule="evenodd" fill="#FFFFFF" d="M206.664,20.35c-1.426,3.976-7.326,3.172-13,5
		C194.713,20.398,200.473,20.158,206.664,20.35z"/>
	<path fill-rule="evenodd" clip-rule="evenodd" fill="#FFFFFF" d="M200.554,28.039c16.712-4.058,20.132,19.214,7.629,22.601
		C196.889,53.699,185.246,31.755,200.554,28.039z M206.366,29.528c-12.621-2.983-16.637,19.016-0.593,18.43
		c-4.812-0.667-4.962-2.962-4.819-5.364c0.426-7.198,10.094-4.737,12.865-1.865C214.305,36.682,211.662,30.78,206.366,29.528z"/>
	<path fill-rule="evenodd" clip-rule="evenodd" fill="#FFFFFF" d="M184.664,29.35c-0.15,2.487-3.386,0.292-4,0
		c-1.448,3.781,2.748,1.919,2,5c-3.144,0.144-3.436-2.564-4-5C179.943,27.982,183.385,27.982,184.664,29.35z"/>
	<path fill-rule="evenodd" clip-rule="evenodd" fill="#FFFFFF" d="M180.664,48.35c3.013,1.502-2.226,2.992-3,4
		c0.658,2.995,2.138-0.956,4,0c-0.147,2.187-2.52,2.147-5,2C175.816,50.168,179.372,50.391,180.664,48.35z"/>
	<path fill-rule="evenodd" clip-rule="evenodd" fill="#FFFFFF" d="M218.664,52.35c7.522-3.315,16.013-1.824,17,5
		C237.909,72.871,209.025,68.686,218.664,52.35z M233.664,61.35c0.58-3.246-0.681-4.652-1-7
		C212.29,43.118,219.852,77.152,233.664,61.35z"/>
	<path fill-rule="evenodd" clip-rule="evenodd" fill="#FFFFFF" d="M220.664,55.35c3.985,0.681,7.154,2.179,12,2
		C231.791,63.76,219.283,63.801,220.664,55.35z"/>
	<path fill-rule="evenodd" clip-rule="evenodd" fill="#FFFFFF" d="M246.664,67.35c1.499-2.393,5.004,1.584,5,4
		c-1.278,1.367-4.722,1.367-6,0c0.15-2.487,3.387-0.292,4,0C249.834,68.847,248.128,68.219,246.664,67.35z"/>
	<path fill-rule="evenodd" clip-rule="evenodd" fill="#FFFFFF" d="M198.664,68.35c0.264,3.265-3.88,2.12-4,5
		c3.078,0.745,1.922-2.745,5-2c0.093,3.093-3.02,2.98-6,3C193.552,70.57,195.621,68.973,198.664,68.35z"/>
	<path fill-rule="evenodd" clip-rule="evenodd" fill="#FFFFFF" d="M183.666,64.041c0.264,3.266-3.88,2.121-4,5
		c3.078,0.746,1.922-2.744,5-2c0.093,3.094-3.02,2.98-6,3C178.553,66.262,180.622,64.664,183.666,64.041z"/>
	<path fill-rule="evenodd" clip-rule="evenodd" fill="#FFFFFF" d="M221.664,78.35c4.328,2.33,0.464,4.666,5,1
		c0.261,3.261-1.188,4.812-4,5C222.687,81.994,220.941,81.405,221.664,78.35z"/>
	<path fill="#FFFFFF" d="M267.664,61.35c-4.763-4.166-4.835-18.381-1-24c-8.04-2.293-8.43-12.237-15-16
		c0.761-0.964,3.746-7.08,1.5-5.875c-4.5,2.414-13.312-3.307-16.5-5.125c0,0,0-0.001,0-0.002c-0.775-0.008-8.746-1.457-9.392-1.457
		c-0.347,0-0.67-0.034-0.979-0.089c0.123,0.183-3.165-0.584-5.63-0.453c-0.896-2.103-1.555-4.446-3-6c-2.464,0.869-4.336,2.331-4,6
		c-0.91-0.119-5.688-0.052-6.023-0.117c0.006,0.041,0.019,0.075,0.023,0.117c-3.222,0.076-10.756,3.769-10.98,3.878
		c-0.007,0.041-0.014,0.081-0.02,0.122c-7.013,3.786-8.553-0.754-15-2c-0.23,3.897,2.148,5.185,3,8
		c-7.167,3.832-11.644,10.356-16,17c-1.891-1.984-3.505-1.704-6-1c-0.918,6.607,8.995,7.642,4,15c-6.493-3.174-12.508-6.825-21-8
		c-0.62,7.693,5.44,17.711,2,26c4.449,3.2,3.805,7.073,3,14c9.195-1.472,15.572-5.762,22-10c2.698,8.677,10.843,13.153,7,23
		c4.687,1.021,5.688-1.646,8-3c6.582,6.752,20.066,6.601,27,13c6.978-4.764,19.239-8.194,28-8c1.164-6.076,8.24-13.363,15-14
		C256.609,73.824,260.434,64.587,267.664,61.35z M183.664,12.35c2.544,0.122,3.878,1.456,4,4
		C185.12,16.228,183.786,14.894,183.664,12.35z M163.664,37.35c0.691-3.135,2.667-1.304,5-1
		C168.833,40.819,165.146,38.931,163.664,37.35z M152.664,79.35c-1.822-13.184-1.605-23.189-6-36c7.668,1.665,15.03,3.637,19,9
		c-5.374,0.817-8.193-2.027-12,0c0.068,5.599,8.675,2.658,12,5c0.023,5.689-9.891,1.442-11,6c2.602,5.531,10.08-2.723,14,1
		c-3.292,2.708-9.165,2.836-12,6c2.027,4.359,7.839-1.225,13,0C165.952,75.304,158.877,76.896,152.664,79.35z M180.664,93.35
		c-0.127-1.794,1.224-2.109,1-4c1.793-0.127,2.109,1.224,4,1C184.75,92.103,183.805,93.824,180.664,93.35z M248.664,83.35
		c-2.4,2.507-3.643,4.416-5,7c-1.23-0.437-2.054-1.279-2-3c-3.055,1.849,1.154,4.751,0,8c-2.267-1.066-3.634-3.033-4-6h-6
		c0.415,2.251,5.483-0.149,5,3c-0.621,4.379-6.144,3.856-10,5c0.529-0.804,1.043-1.623,1-3c-2.453,7.182-12.507,2.405-15,8
		c-0.854-3.188,0.871-3.796,2-5c-7.572,3.873-10.079-1.809-18-2c0.354-1.313,1.761-1.573,2-3c-3.182,2.562-4.042,1.224-8,0
		c0.027-0.973,1.224-0.776,2-1c-7.226-0.432-14.16-8.035-16-17c-3.049-6.196-6.115-11.57-7-18c-3.833-27.844,14.955-39.73,35-46h10
		c2.246-0.42,0.027-5.306,2-6c1.434,1.233,1.895,3.439,2,6c10.518-1.75,22.373,3.552,29,9c2.319,0.743-7.443-0.604-9,2
		c1.379,3.009,7.327-0.133,10,0C272.188,34.894,260.776,70.702,248.664,83.35z"/>
	<path fill-rule="evenodd" clip-rule="evenodd" fill="#FFFFFF" d="M205.806,92.254c-4.094,0.866-2.551-4.928-1.142-5.981
		c2.487,0.15,0.292,3.387,0,4c3.236,1.235,0.764-3.235,4-2c0,0.667,0.943,1.61,1,1C210.813,90.956,207.317,92.529,205.806,92.254z"
		/>
	<path fill-rule="evenodd" clip-rule="evenodd" fill="#FFFFFF" d="M244.85,28.854c27.815,0.46,1.135,37.442-6.811,12.109
		c-1.498-4.781,2.277-13.233,9.754-14.996c1.836,1.372,4.122,1.009,5.624,3.658C250.448,29.802,248.396,26.458,244.85,28.854z
		 M246.724,30.073c-8.95,2.843-8.438,14.078-2.049,16.273c-7.712-16.333,17.517-6.109,5.474,1.427
		C261.309,43.859,254.112,30.776,246.724,30.073z"/>
</g>
</svg>
