<?xml version="1.0" encoding="utf-8"?>
<!-- Generator: Adobe Illustrator 15.0.2, SVG Export Plug-In . SVG Version: 6.00 Build 0)  -->
<!DOCTYPE svg PUBLIC "-//W3C//DTD SVG 1.1//EN" "http://www.w3.org/Graphics/SVG/1.1/DTD/svg11.dtd">
<svg version="1.1" id="Layer_1" xmlns="http://www.w3.org/2000/svg" xmlns:xlink="http://www.w3.org/1999/xlink" x="0px" y="0px"
	 width="618px" height="164px" viewBox="0 0 618 164" enable-background="new 0 0 618 164" xml:space="preserve">
<g>
	<path fill="#FFFFFF" d="M344.896,83.184c-2.203-2.66-4.812-5.052-3.824-7.581c-3.666-2.517-5.164-10.531-7.496-13.562
		c-3.213,2.778-4.01,8.346-5.852,11.418c-0.484-0.173-0.712,0.614-0.773,1.135c0.452,0.75,0.883,1.548,1.287,2.413
		c1.136,2.415,1.447,4.936,1.752,7.665c0.434,0.09,1.143-0.281,1.047-0.621C334.852,84.077,340.678,85.054,344.896,83.184z
		 M341.507,81.981c-3.243,0.655-6.613,1.903-9.492,0.845c1.815-1.902,5.735-1.149,5.403-3.506c-2.031-0.551-4.507,0.98-6.604,0.742
		c0.624-2.604,5.958-1.189,5.548-4.191c-1.689-1.595-4.664,2.843-6.19,0.472c0.751-1.87,5.12-2.968,3.642-5.312
		c-2.131,0.184-2.535,2.125-4.989,3.235c0.204-3.3,2.731-6.104,5.472-8.864C335.923,71.91,338.71,76.011,341.507,81.981z"/>
	<path fill-rule="evenodd" clip-rule="evenodd" fill="#FFFFFF" d="M290.515,40.659c-3.287,0.695-3.387,2.981-1.998,6.01
		c3.09-0.975,1.166-1.383,0.397-2.805c1.896-1.125,2.58,0.18,3.206,1.6C295.048,44.284,291.112,41.278,290.515,40.659z"/>
	<path fill-rule="evenodd" clip-rule="evenodd" fill="#FFFFFF" d="M285.963,67.303c-4.483,5.631-11.501,4.995-14.722-1.208
		C262.127,48.539,299.955,49.735,285.963,67.303z M272.271,66.833c3.88,1.254,2.581-4.019,3.719-5.279
		c1.808-1.881,7.163,2.884,5.41,5.593c6.28-1.982,6.016-10.642-1.298-13.402C274.484,54.739,270.961,62.103,272.271,66.833z"/>
	<path fill-rule="evenodd" clip-rule="evenodd" fill="#FFFFFF" d="M306.698,45.959c2.438,3.812,8.821-0.29,10.82,4.396
		C319.061,46.478,311.332,44.115,306.698,45.959z"/>
	<path fill-rule="evenodd" clip-rule="evenodd" fill="#FFFFFF" d="M316.377,54.773c13.393,13.041-20.646,25.87-15.619,2.815
		C307.599,51.655,312.322,50.826,316.377,54.773z M301.959,63.123c2.255,5.022,4.445-6.511,8.304-1.804
		c2.943,2.723,2.686,5.097-0.771,7.125c4.241,0.979,7.341-5.752,8.087-8.134C313.594,49.793,302.327,56.469,301.959,63.123z"/>
	<path fill-rule="evenodd" clip-rule="evenodd" fill="#FFFFFF" d="M329.74,55.009c2.811-0.17,8.302-2.667,3.232,2.365
		c3.467,1.686,5.361-4.453,2.966-6.763C331.863,51.761,333.533,52.177,329.74,55.009z"/>
	<path fill-rule="evenodd" clip-rule="evenodd" fill="#FFFFFF" d="M285.706,87.037c-3.723-7.911-1.338-13.669,10.002-14.029
		C322.406,72.163,295.283,107.385,285.706,87.037z M286.9,78.624c-2.834,14.235,17.327,15.596,18.829,4.39
		C304.007,72.666,293.39,73.159,286.9,78.624z"/>
	<path fill-rule="evenodd" clip-rule="evenodd" fill="#FFFFFF" d="M273.287,85.846c-1.18-2.927-4.186,1.01-4.805,1.605
		c1.634,1.406,2.509,4.334,6.009,1.998C273.334,88.76,271.522,86.783,273.287,85.846z"/>
	<path fill-rule="evenodd" clip-rule="evenodd" fill="#FFFFFF" d="M285.982,82.567c1.25,9.136,13.918,5.363,14.42-0.813
		C296.363,76.748,293.317,81.592,285.982,82.567z"/>
	<path fill-rule="evenodd" clip-rule="evenodd" fill="#FFFFFF" d="M280.044,100.248c-6.247,0.646-0.45,10.213,1.606,4.806
		c-0.424-1.157-1.783-0.44-2.805-0.397C279.218,103.174,281.193,102.49,280.044,100.248z"/>
	<path fill-rule="evenodd" clip-rule="evenodd" fill="#FFFFFF" d="M304.087,98.447c0.891,0.892,1.773,1.797,3.207,1.601
		c0.276,1.472-1.853,1.744-3.203,2.405c0.996,2.016,2.982,2.047,5.608,0.797C308.785,99.73,307.656,96.644,304.087,98.447z"/>
	<path fill-rule="evenodd" clip-rule="evenodd" fill="#FFFFFF" d="M322.965,94.614c0.547,4.44,5.65,2.901,6.809,0.396
		c-0.658-2.694-2.261-3.494-4.809-2.4C327.854,95.529,326.338,93.652,322.965,94.614z"/>
	<path fill-rule="evenodd" clip-rule="evenodd" fill="#FFFFFF" d="M342.99,94.597c-0.975,3.385,2.41,4.179-4,4.01
		c1.93,2.146,4.768,2.478,8.41,1.194C347.15,95.623,344.269,96.717,342.99,94.597z"/>
	<path fill-rule="evenodd" clip-rule="evenodd" fill="#FFFFFF" d="M298.902,114.678c-2.442,1.865,1.318,7.828,4.411,5.203
		c-0.662-1.331-0.449-2.225,0.397-2.803c-0.802-1.412-2.793-0.414-2.403,0.803C299.835,118.158,299.563,116.029,298.902,114.678z"/>
	<path fill-rule="evenodd" clip-rule="evenodd" fill="#FFFFFF" d="M322.977,110.637c-1.602,0.535-3.203,1.071-4.805,1.606
		c1.22,1.568,2.789,2.435,4.01,4.002C324.197,115.25,324.229,113.263,322.977,110.637z"/>
	<path fill-rule="evenodd" clip-rule="evenodd" fill="#FFFFFF" d="M298.07,28.144c5.504,9.676,20.744,5.124,26.439,3.182
		c2.312,3.488-1.437,4.668-0.227,6.676c1.176-0.027,14.859,7.65,19.863,4.122c2.072,4.036-3.266,4.375-1.194,8.413
		c2.56,2.229,7.276,3.896,6.817,8.406c0.988-2.168,2.83-3.421,7.609-1.209c-2.909,3.133-6.712,7.112-0.793,9.615
		c3.849-4.085,8.516-7.763,13.609-11.228c3.447,10.497,4.322,28.107,4.041,40.052c-7.012,0.68-10.777-5.147-16.829-6.395
		c-1.529,2.887,1.996,2.729,2.409,7.209c-9.295,0.247-10.833,7.113-9.6,15.229c-7.473-2.568-14.966,4.602-13.208,12.43
		c-4.206,2.411-11.134,4.32-16.39,1.951c-0.705,2.985-0.713,5.197-4.832,6.479c-3.803-8.117-16.614-9.17-22.032-1.984
		c-3.177-9.373-12.487-13.803-21.24-11.596c-1.828-3.583,2.172-4.256,1.596-7.212c-4.804-3.079-6.52-12.343-14.029-10.003
		c2.4-6.389,0.831-17.602-4.827-22.426c6.46-5.338,8.458-15.892,1.984-22.033c8.717-1.057,15.58-10.388,17.206-20.442
		C280.406,44.879,293.762,33.385,298.07,28.144z M275.655,44.987c1.148,3.048,5.263,0.151,6.412,3.199
		c0.226,0.704-7.785,1.022-10.414,0.81c-29.202,35.611,10.511,89.693,54.939,72.452c18.217-7.069,36.688-30.833,25.186-56.5
		C339.857,38.346,304.235,24.952,275.655,44.987z M369.797,58.925c-5.337,3.342-9.424,7.309-13.609,11.227
		c2.123,2.266,4.998-3.417,9.611-3.213c2.605,5.638-7.113,5.126-9.205,8.42c3.051,1.909,9.207-2.404,10.416,3.195
		c-1.041,4.507-5.844-0.134-8.811,1.61c1.896,2.887,6.318,0.712,8.016,3.999c0.012,5.938-5.129,0.111-8.812,1.61
		c3.578,4.868,9.479,5.075,13.629,8.8C374.508,84.631,369.131,70.268,369.797,58.925z"/>
	<path fill-rule="evenodd" clip-rule="evenodd" fill="#FFFFFF" d="M344.896,76.241c0.568,2.206,2.317,2.042,2.807,4.403
		c3.57-0.22,1.619-3.195,4.003-4.009C350.65,74.067,347.816,75.067,344.896,76.241z"/>
</g>
</svg>
