<?xml version="1.0" encoding="UTF-8" standalone="no"?>
<!-- Generator: Adobe Illustrator 15.0.2, SVG Export Plug-In . SVG Version: 6.00 Build 0)  -->
<!DOCTYPE svg  PUBLIC '-//W3C//DTD SVG 1.1//EN'  'http://www.w3.org/Graphics/SVG/1.1/DTD/svg11.dtd'>
<svg id="Layer_1" xmlns="http://www.w3.org/2000/svg" xml:space="preserve" height="37px" viewBox="360.5 577 48 37" width="48px" version="1.1" y="0px" x="0px" xmlns:xlink="http://www.w3.org/1999/xlink" enable-background="new 360.5 577 48 37">
<linearGradient id="SVGID_1_" y2="-231.88" gradientUnits="userSpaceOnUse" x2="702.05" gradientTransform="matrix(1 0 0 -1 -216 -204)" y1="-807.37" x1="729.87">
	<stop stop-color="#37364D" offset="0"/>
	<stop stop-color="#5F5F72" offset="1"/>
</linearGradient>
<rect width="1e3" height="632.89" display="none" fill="url(#SVGID_1_)"/>
<path d="m384.34 578.89c0.536 0.611 1.415 1.527 0.546 2.435-0.454-0.68-1.061-2.688-1.71-0.732-1.08-0.36 0.23-1.83 1.16-1.7z" fill="#292A3A"/>
<path d="m372.69 579.89c1.062-0.003 1.646 0.516 1.752 1.553-0.701 0.188-0.803-0.278-0.877-0.774-0.373 0.319-0.592 0.774-0.769 1.27-0.97-0.06-0.32-1.79-0.1-2.05z" fill="#292A3A"/>
<path d="m381.64 583.13c-1.461-0.671-1.998 0.158-3.75 0.189-0.44-1.29 4.05-1.52 3.75-0.19z" fill="#292A3A"/>
<path d="m378.27 590.68c-5.225-4.612 3.752-9.196 4.807-3.933 0.43 2.15-1.33 4.09-4.81 3.93zm1.83-5.02c0.036 0.682 0.071 1.364 0.107 2.047-1.021 0.771-1.977 1.151-2.916 0.146 1.82 6.803 8.729-3.888 1.977-2.15 0.27-0.02 0.55-0.03 0.83-0.05z" fill="#292A3A"/>
<path d="m370.51 586.15c1.389 2.693-0.438 5.119-3.492 5.097-0.437-0.531-1.152-0.761-1.729-1.142-1.49-4.19 2.72-5.69 5.22-3.96zm-2.47 0.53c2.175 2.074-1.732 2.834-2.371 2.581 2.55 4.49 7.15-3.89 2.37-2.58z" fill="#292A3A"/>
<path d="m387.99 584.86c0.101-0.562 1.024-0.394 1.646-0.493 0.403 1.397-0.372 1.751-0.704 2.495-1.48-0.41 1.79-2.61-0.95-2z" fill="#292A3A"/>
<path d="m395.33 589.41c0.861-0.219 1.119 0.226 1.688 0.322 0.004 1.045-0.523 1.618-1.581 1.722-0.19-0.688 0.284-0.788 0.792-0.859-0.29-0.4-0.98-0.38-0.9-1.18z" fill="#292A3A"/>
<path d="m382.11 592.12c1.548 0.31 1.47 1.922-0.311 2.065-0.188-0.688 0.284-0.786 0.791-0.858-0.24-0.31-0.47-0.63-0.48-1.2z" fill="#292A3A"/>
<path d="m370.48 593.53c2.336-1.291 4.889 0.015 4.732 2.631-0.32 5.56-10.01 0.29-4.73-2.63zm-1.14 2.11c0.399 2.678 5.059 3.175 5.438 0.136-0.487-0.044-0.486-0.623-0.481-1.206-1.38-1.18-4.67-0.86-4.96 1.07z" fill="#292A3A"/>
<path d="m373.46 594.61c0.062 1.617-0.727 2.477-2.372 2.582-0.219-0.771-1.229-0.682-0.94-2.003 0.99-0.3 1.87-0.68 3.31-0.58z" fill="#292A3A"/>
<path d="m393.09 594.44c0.588-0.893 2.611 0.301 2.585 1.51-0.465 0.367-1.089 0.596-2.062 0.513 1.17-1.08 1.3-1.5-0.53-2.02z" fill="#292A3A"/>
<path d="m382.36 597.03c0.629 0.325 1.353 0.546 1.336 1.573-0.521 0.553-1.508 0.603-2.084 0.104 0.269-0.744 0.755-0.097 1.251-0.063 0.01-0.73-0.56-0.83-0.51-1.61z" fill="#292A3A"/>
<path d="m387.14 600.48c0.749 0.339 0.988 1.23 0.962 2.41-1.413 0.243-2.38-0.004-2.169-1.528 0.406 0.277 0.67 0.711 0.897 1.184 0.91 0.03 0.11-1.45 0.31-2.06z" fill="#292A3A"/>
<path d="m379.73 602.5c0.578-1.282 0.457 1.756 0.543 2.433-1.352 0.177-2.029-0.384-2.168-1.529 0.701-0.188 0.804 0.278 0.877 0.774 0.73-0.13 0.91-0.75 0.75-1.67z" fill="#292A3A"/>
<path d="m371.37 602.51c1.22 0.169-0.605 0.671-0.354 1.248-1.529-0.297-0.315-1.192-0.545-2.433 1.231 0.293 0.502 0.588 0.502 1.613 0.36 0.06 0.38-0.18 0.39-0.43z" fill="#292A3A"/>
<path d="m406.54 588.02c-3.766-0.085-5.042 2.034-8.227 2.468-1.155-2.188 0.668-2.032 0.619-4.135-0.834-0.725-1.05 0.011-2.083 0.105-1.163-1.573-2.259-2.844-1.091-4.865-3.409 0.496-5.457-2.184-8.131-3.688 0.908 0.023 1.208-2.789 0.31-2.065-0.896 0.725-1.614 1.458-2.829 1.784-0.514-0.486-0.974-1.03-1.397-1.61-0.2 0.079-0.408 0.133-0.616 0.153-1.128 0.113-2.224 0.234-3.337-0.05-0.037-0.012-0.071-0.028-0.108-0.039-0.103 0-2.861-1.613-2.861-1.613s-1.248 1.812-1.285 3.234c-1.158-0.069-1.873-0.62-2.588-1.174-0.395 0.557-0.783 1.147-1.24 1.676-0.271 0.312-0.576 0.51-0.889 0.611-0.064 0.261-0.129 0.52-0.198 0.773-1.39 0.07-1.353 1.403-2.853 1.375-0.883-0.189-1.241-0.953-2.543-0.691-0.389 1.722 0.961 1.551 0.983 2.819-2.493 1.302-1.282 5.885-5.554 5.613 1.943 2.016 1.43 4.094 2.054 7.275-0.272 0.669-2.045 0.013-1.603 1.312 2.723 1.171 4.545 4.585 3.322 7.622 3.424-0.411 4.715 1.499 5.633 3.815 2.394-1.841 6.17 0.636 7.649 2.482 1.173-2.615 5.268-1.782 7.873-1.219 2.429-1.822 4.66-5.207 8.534-4.531l-0.15-2.861c1.069-1.332 3.636-1.37 3.184-3.031 2.7 1.674 5.85 2.854 9.381 3.626 0.09-5.01 0.56-9.66 0.06-15.17zm-26.05 21c-7.53 0.26-16.389-4.374-17-13.489 0.389 0.299 0.964 0.392 1.688 0.322-0.721-0.354-1.372-1.291-0.085-1.634-0.742-1.344-1.252 1.352-2.083 0.104-1.049-19.333 27.965-21.475 33.907-6.636 3.76 9.44-5.94 20.98-16.44 21.34zm16.96-11.11c2.12 0.433 3.646 1.509 5.546 2.18-0.379-2.046-5.047-1.701-4.756-3.04 0.577-1.971 3.02 0.863 5.021 0.157-0.755-1.629-4.438-0.073-4.713-2.223l6.25-0.315c-1.382-0.946-4.397-0.114-5.896-0.932 0.134-1.573 3.034-0.693 4.104-1.438-0.928-1.208-3.689 0.545-4.188-0.2 0.989-2.243 4.691-2.085 6.494-3.606 1.325 4.165 0.46 9.762 0.313 13.926-2.63-1.61-6.98-1.33-8.16-4.52z" fill="#292A3A"/>
<path d="m390.62 597.75c-0.043-1.483-0.299-2.985 0.724-3.579-0.586-1.823 1.06-4.936 1.07-6.579-1.857 0.091-3.634 1.767-5.099 2.319-0.121-0.188-0.411 0.019-0.573 0.181-0.045 0.372-0.112 0.757-0.206 1.157-0.259 1.118-0.831 2.056-1.461 3.062 0.125 0.145 0.469 0.207 0.528 0.064 1.31 1.03 3.06 2.9 5.02 3.38zm-0.85-1.3c-1.295-0.638-2.794-1.104-3.504-2.227 1.142-0.166 2.291 1.128 2.812 0.243-0.553-0.725-1.82-0.862-2.479-1.498 0.917-0.718 2.377 1.173 3.044 0.049-0.152-0.986-2.376-0.271-2.263-1.479 0.763-0.433 2.567 0.351 2.689-0.835-0.785-0.502-1.448 0.049-2.597-0.225 0.961-1.062 2.59-1.346 4.28-1.557-1.19 2.64-1.33 4.76-1.98 7.53z" fill="#292A3A"/>
</svg>
