<?xml version="1.0" encoding="utf-8"?>
<!-- Generator: Adobe Illustrator 15.0.2, SVG Export Plug-In . SVG Version: 6.00 Build 0)  -->
<!DOCTYPE svg PUBLIC "-//W3C//DTD SVG 1.1//EN" "http://www.w3.org/Graphics/SVG/1.1/DTD/svg11.dtd">
<svg version="1.1" id="Layer_1" xmlns="http://www.w3.org/2000/svg" xmlns:xlink="http://www.w3.org/1999/xlink" x="0px" y="0px"
	 width="246.836px" height="153.051px" viewBox="399 101 246.836 153.051" enable-background="new 399 101 246.836 153.051"
	 xml:space="preserve">
<linearGradient id="SVGID_1_" gradientUnits="userSpaceOnUse" x1="1161.8706" y1="-1056.3081" x2="1134.0504" y2="-480.8262" gradientTransform="matrix(1 0 0 -1 -648 -452.9492)">
	<stop  offset="0" style="stop-color:#37364D"/>
	<stop  offset="1" style="stop-color:#5F5F72"/>
</linearGradient>
<rect display="none" fill="url(#SVGID_1_)" width="1000" height="632.89"/>
<path display="none" fill="#292A3A" d="M691.571,235.529c8.805-20.297,6.322-62.696,7.066-83.982
	c4.404,24.912,3.73,68.821-3.312,96.255c6.066,16.228,5.873,37.577,7.652,60.724c2.625,34.111,12.826,56.817,12.244,97.149
	c-0.285,20.062-7.182,50.188,2.215,58.396c4.281-3.9,0.553-13.32,0.041-20.09c0.271-7.931,1.674,0.737,3.564-3.814
	c-0.912-1.367-2.627-13.328-3.104-4.195c-1.602-31.311-2.25-68.187,3.547-100.26c1.439-7.974,4.865-13.514,5.717-21.771
	c2.854-27.793-6.656-48.504-7.844-76.809c-1.479-35.229-0.752-67.82-0.668-104.521c13.766,29.314,12.416,78.947,10.398,129.191
	c-5.039-4.428-0.879-9.26-3.754-12.271c-5.906,6.792,6.145,20.616,3.639,14.274c2.961,7.488,7.578,21.31,8.158,32.617
	c1.928,37.569-11.799,86.169-5.93,122.23c2.295-35.062,11.373-84.828,18.576-109.44c9.438-14.55,10.523-41.836,18.262-65.254
	c3.555-10.765,8.371-19.479,12.963-31.401c14.479-37.586,19.598-77.807,51.191-75.414c-4.459,13.422-14.895,16.879-20.633,28.953
	c-3.242,6.825-15.48,42.969-16.568,55.303c-1.023,11.615,4.086,24.172,3.25,40.375c-1.195,23.146-4.533,56.352-5.078,88.117
	c-0.547,31.815,5.209,61.701,2.588,90.568c-2.777,30.596-10.545,47.793-17.609,73.33c8.51-10.002,10.01-34.543,17.223-47.232
	c3.486-25.987,5.49-50.041,11.17-77.717c3.945-19.22,11.496-27.626,13.123-53.497c1.824-29.064,2.512-50.536,8.602-71.84
	c7.521-26.312,8.732-62.942,26.502-72.817c-11.145,31.147-13.43,68.361-16.119,105.562c-1.197,16.594-5.65,32.221-7.219,47.808
	c-1.695,16.939-1.113,33.011-4.99,47.938c-5.807,22.342-12.404,34.346-14.232,53.43c-1.055,11.012,1.057,22.385-0.965,36.113
	c-3.949,26.812-20.703,43.07-27.271,66.746c-8.547,30.809-12.854,65.262-38.27,64.1c-2.113,0.104-1.152,6.574-3.686,5.816
	c1.904,25.506,7.523,45.146,10.527,68.922c1.566,0.264,3.129,0.508,3.451-1.812c-0.076,4.082-1.539,10.636,2.408,16.218
	c1.965-1.195,0.961-4.566-0.881-4.074c0.697-4.422,7.047-1.521,3.223,2.197c17.479-16.103,13.463-54.302,17.768-95.423
	c3.836,4.257,3.154,15.646,5.4,22.412c4.623-14.073,4.424-56.229,11.938-71.646c-0.854,27.506-4.025,53.979-6.379,71.969
	c6.332-7.045,5.773-28.381,13.078-33.403c-7.957,42.53-19.027,78.604-34.023,106.539c5.451,3.543,14.105-8.223,16.791-1.045
	c2.939,4.084-4.305,5.847-4.023,11.826c6.633-10.406,17.006-21.555,24.383-16.678c-0.062-3.734,3.787-5.154,8.129-5.561
	c-1.805,11.771,12.271,11.416,11.838,26.803c-6.432,1.012-12.824-0.449-20.24,2.854c4.098,4.674,12.006-1.94,18.898,1.09
	c-0.475,8.541-5.725-1.729-10.119,1.429c2.127,6.604,6.236,0.61,8.662,4.516c-18.854-2.371-32.264-3.266-49.26,3.189
	c1.992,2.524,10.273-1.017,15.561,0.896c1.186,2.705,0.252,3.178-0.346,6.012c8.154-0.653,12.676-14.389,21.584-6.795
	c-0.396,4.414-4.768,0.578-6.785,1.615c0.885,6.541,8.23,8.553,2.758,10.209c2.365,4.754,9.939,1.291,14.336,2.834
	c-6.283,5.354-21.162-1.35-28.902-1.666c0.068,2.699,4.4,3.994-0.229,4.006c6.82,3.654,18.111-2.188,25.338,5.479
	c-5.227,4.543-36.793,8.202-50.256,1.123c-6.219-3.271-1.221-3.156-8.893-0.515c-5.736,1.979-16.658,0.871-22.354,0.726
	c-13.594-0.357-26.486-7.824-41.131-2.371c7.191-11.287-6.271-0.619-6.094-10.398c3.705,0.213,7.41,0.43,11.117,0.644
	c-6.932-6.607-18.385,3.952-24.229-5.414c7.42-6.125,11.186,4.559,17.021-5.045c0.098-3.853-3.857,2.135-6.67-0.388
	c1.734-2.887,3.797-4.102-0.883-4.067c1.822-10.175,4.812-12.05,10.582-9.438c0.453,7.66-5.402,2.242-8.012,3.56
	c0.566,4.561,6.189,1.143,8.777,2.514c1.697-0.779-0.291-2.588,0.346-6.008c1.785,4.565,4.191,6.856,7.551,4.455
	c-0.045-2.359-1.93-1.812-3.219-2.197c6.607-7.221,19.336-1.74,26.145-8.539c5.09,7.188,4.615,6.338,10.771,6.65
	c-13.371-3.474-20.947-28.224-31.156-39.978c-2.744-3.157-7.223,0.068-12.111-2.707c-22.939-13.026-30.496-52.646-41.957-84.803
	c13.545,2.873,14.42,25.762,22.379,37.463c0.135-22.196-12.109-34.082-12.793-48.961c-18.189-7.125-24.031-49.371-35.98-72.398
	c15.219,8.726,23.135,44.751,37.783,60.445c-3.463-14.555-4.189-33.426-7.234-48.641c11.738,19.078,15.869,65.938,28.271,90.037
	c-4.861-41.47-16.283-72.572-27.463-104.062c7.725,2.98,14.371,23.396,20.271,35.326c-0.57-13.055-1.1-26.174-4.709-34.43
	c10.234,8.113,8.062,51.58,14.859,71.182c7.832-2.271,3.441-15.885,2.496-23.967c-2.828,4.004,2.025,11.254,1.186,18.152
	c-7.484-30.072-7.576-79.953-17.994-113.562c-3.838-12.381-9.033-22.185-12.488-34.878c-3.447-12.675-5.113-27.782-8.811-40.692
	c-6.826-23.857-19.574-44.905-17.961-75.382c8.562,11.676,6.492,27.571,12.145,40.89c5.184,12.217,14.008,15.983,19.619,27.251
	c8.184,16.416,8.396,40.121,13.1,63.043c3.775-7.87-1.047-17.703-1.951-24.228c5.338,2.824,2.789,5.586,5.631,18.41
	c0.531-2.479,1.41-8.157,3.031-13.891c-3.617,11.715-2.996-14.453-6.207-8.396c-2.914-1.998,1.537-6.95,1.688-9.947
	c-2.77-0.411-3.262-4.022-4.561,1.744c-6.268-34.021-1.826-99.253,8.613-130.108c-13.248-28.221-13.055-77.678-23.783-109.87
	c14.029,19.01,18.107,53.819,30.148,76.062L691.571,235.529z M669.77,188.061c0.742,0.043,1.482,0.086,2.227,0.129
	c-2.68,3.582,0.436,14.521,2.758,10.205c-0.459,4.975,1.389,6.299,1.646,10.143c-2.602,0.466-0.902-5.854-2.99-6.199
	c-1.129,11.896,0.689,17.76,1.762,8.139c-0.941,11.863,0.75,30.312,5.938,32.49c-4.326-0.66,9.85,40.961,10.383,32.748
	c-0.135,1.221-0.305,2.361-1.23,1.938c1.732-8.539,0.668-2.531-0.766-6.071c0.73-6.959,2.998,0.341,3.564-3.812
	c-2.359-1.729-0.9-9.498-3.867-10.271c-0.375,2.402-1.307,1.161-2.225-0.128c-0.172,5.124,1.633,7.127,2.756,10.207
	c0.062-1.113,1.033-2.224,1.113,0.062c-1.115-0.07-1.416,1.545-2.34,1.875c-0.721-5.539-2.918-8.738-3.641-14.274
	c2.064,3.625,2.268-1.365,4.332,2.26c-0.186-11.896-6.084,1.021-7.205-10.462c4.953,1.593,8.174,8.79,11.537,12.722
	c1.557-7.321-8.6-15.077-8.273-30.614c1.365,5.123,2.135,11.188,4.752,14.338c-0.477-11.387-4.162-17.697-7.512-24.543
	c-0.637,3.42,1.354,5.229-0.346,6.008c-0.412-4.207-1.965-6.608-2.76-10.207c1.662-0.979,2.264,7.959,3.221,2.195
	c-1.842-4.48-4.824-5.854-6.324-6.394c2.631-6.67-2.41-26.45-6.51-22.489V188.061L669.77,188.061z M642.901,538.14
	c3.133,3.551,4.76,9.472,6.975,14.467c2.869-5.432-5.41-16.262-6.98-14.462L642.901,538.14z M654.741,564.94
	c-0.008-6.662-2.828-8.882-4.865-12.341c-1.861,9.61,4.139,6.812,4.859,12.342L654.741,564.94z M657.85,569.14
	c0.268-2.436,0.605-4.717,2.453-3.875c1.729,14.586,5.217,16.998,10.078,18.664c-8.979-8.83-10.84-27.57-19.391-31.258
	c4.67,5.14,5.289,9.53,6.857,16.48v-0.012H657.85z M663.18,515.2c2.494,9.397,4.547,9.981,4.637,16.342
	c9.5-3.46-5.221-15.89-4.641-16.34L663.18,515.2z M676.139,542.06c-3.402-5.046-0.986-8.033-4.861-12.339
	c-3.223,4.48,2.643,5.529-0.576,10.017c3.672-1.56,1.143,6.688,4.1,6.266c0.639-3.422-1.354-5.229,0.348-6.01
	c-0.842,4.12,4.08,4.49,0.988,2.06L676.139,542.06z M684.26,381.79c-0.186,8.242-5.275,12.854-1.039,18.022
	c0.676-2.337,1.447-4.476,2.568-5.882c-0.908,5.825,4.969,10.159,1.416,14.147c-0.105-4.696-0.645-8.695-2.758-10.206
	c-0.863,4.125-1.98,4.143-3.451,1.811c2.189,12.522,1.852,7.492,6.744,18.475c1.006-5.401-4.488-9.669-1.531-12.146
	c2.508,3.986,3.35,20.109,5.631,18.408c-2.41-12.92-2.301-24.21-7.58-42.62V381.79z M808.049,149.811
	c-0.148,2.67-0.307,5.338-0.461,8.01c5.334-0.424,4.787-8.062,10.236-3.43c-1.98-10.729-6.449-0.649-9.779-4.58H808.049z
	 M724.889,199.27c1.299-10.358,0.057-13.135-1.947-24.225c-0.143,9.34,0.42,17.551,1.947,24.23V199.27z M784.6,246.92
	c0.342-1.542,0.262-3.949,1.346-3.941c0.156,1.568-0.197,3.951,0.881,4.069c0.467-3.772-0.998-4.491-0.65-8.075
	c1.115,0.069,1.416-1.546,2.338-1.875c0.533,0.807,1.086,9.822,1.992,4.133c0.215-3.979-2.885-2.719-1.762-8.139
	c2.518-3.839,1.273-3.91,3.336,0.192c0.467-3.771-0.998-4.49-0.65-8.075c0.617,0.042,1.355-1.548,0.115-2.002
	c-1.17,8.83-9.85,13.859-6.941,23.721L784.6,246.92z M763.2,328.07c12.59,41.149-10.668,117.75,5.795,151.028
	c13.742-26.979,8.668-65.299,12.787-105.76c1.111-10.932,3.768-19.078,3.84-27.908c0.111-13.868-3.529-26.255-3.25-40.374
	c0.396-20.106,5.914-41.267-0.104-56.268c-8.859,21.271-11.01,56.41-19.08,79.28L763.2,328.07L763.2,328.07z M832.709,263.76
	c3.486,1.999,1.939-6.441,3.797-7.818c-1.682,0.246-4.061-0.949-4.561,1.746c1.27,0.41,1.02,3.23,0.76,6.07L832.709,263.76z
	 M830.03,271.641c3.547-0.787,2.539,7.07,5.439,2.32c0.885-6.247-2.469-5.807-3.982-8.268c-0.119,2.771-0.779,4.371-1.459,5.951
	L830.03,271.641z M828.639,295.67c-3.338-6.99-1.869,12.928-4.561,1.747c-0.271,4.672-0.539,9.347-0.811,14.019
	c1.686-0.241,4.062,0.952,4.562-1.744c-2.859-10.158,5.672-14.574,6.178-29.783c-1.416-0.192-1.391-2.658-3.221-2.196
	c0.398,8.3-2.301,10.181-2.15,17.96L828.639,295.67z M698.35,446.9c4.516-64.761-4.465-106.48-8.553-161.24
	c-10.281,67.25,0.43,117.01,8.549,161.24H698.35L698.35,446.9z M786.7,307.32c-0.018-3.008,0.824-7.368-0.648-8.075
	c-4.312,14.138,0.65,27.305,0.146,36.176c2.352-7.625,1.076,14.952,2.873,8.203c0.9-4.109-0.615-13.235,1.92-13.954
	c-0.297,2.624-1.004,14.48,0.648,8.074c-0.102-12.58-0.053-25.402,1.197-40.118c-1.111-0.063-2.223-0.128-3.336-0.19
	c-1.99,1.109-0.461,9.511-2.801,9.891V307.32z M824.571,327.58c-1.471-0.108-0.814-3.569-1.992-4.133
	c0.908,6.58-4.105,12.124-0.924,16.021c-1.467-9.412,9.691-12.688,4.258-15.829c-0.34,1.54-0.26,3.95-1.35,3.94L824.571,327.58z
	 M763.161,348.16c-0.449-5.964,0.51-14.154-2.412-16.214c-0.289,7.154,1.494,12.786-1.457,5.94
	c-0.85,8.699-3.693,13.268-4.604,21.839c6.541-2.547-0.719,14.694,2.758,10.205c0.34-1.542,0.26-3.949,1.344-3.938
	c-0.068,1.106,0.77,2.324,1.111,0.062c-2.557-3.867,0.145-3.673,2.338-1.875c1.801-8.46-3.439-25.199,0.93-16.02H763.161
	L763.161,348.16z M755.68,361.79c-8.932,30.72-3.854,80.718-4.354,114.28c-0.355,23.709-5.684,48.26-0.479,66.276
	c-0.471-12.631-2.166-32.946,1.543-46.125c-2.338,13.611,4.51,11.021,3.408,18.281c1.242-6.391,2.289-13.188,4.373-17.832
	c-4.801-0.512-4.266-21.104-8.547-6.52c2.99-41.382,4.881-93.74,4.062-128.36L755.68,361.79z M820.959,351.49
	c1.221,5.843-3.615,10-0.688,12.016c2.201-5.988,5.342,0.437,6.896-3.621c-4.711-1.901-1.34-9.834-4.635-16.343
	c-3.83,3.21,3.891,8.12-1.58,7.94L820.959,351.49z M697.85,475c1.252-2.713,0,8.367,3.869,10.27
	c-1.178-7.846-0.713-18.291-4.287-22.35c-0.732,4.797,1.779,4.471,0.533,10.078c-0.609-0.05-1.35,1.54-0.109,2L697.85,475z
	 M706.93,491.6c-1.113-0.071-1.416,1.543-2.338,1.873c1.188-5.811-0.285-8.717-0.535-10.075c-0.676,2.338-1.445,4.471-2.568,5.881
	c-0.938-2.771-2.734-4.179-4.102-6.267c1.236,8.383,2.01,9.23,2.412,16.215c0.268-2.438,0.605-4.725,2.453-3.879
	c1.209,7.019-1.783,9.365,0.305,14.084c0.34-1.545,0.26-3.953,1.344-3.94c-0.641,4.606-1.725,10.078-3.684,5.813
	c0.562,5.181,0.455,11.414,2.527,14.211c1.586-4.85,3.107-18.573,5.02-9.76c1.154-5.063-3.814-9.455-0.418-12.078
	c-0.088,10.14,1.795-4.022,3.564-3.811c-0.711,6.576-4.42,9.781-0.807,14.016c2.17-8.646,0.463-16.639,2.381-21.963
	c0.039,2.363-0.521,5.67,0.766,6.07c2.125-8.457,1.641-18.295-1.186-18.15c1.615-1.883,2.527-5.217,3.797-7.82
	c-2.631-2.803-3.938,7.72-4.562,1.746c0.617,0.041,1.355-1.549,0.115-2.002c-3.986,7.662,3.49,14.125-1.037,18.023
	c0.17-0.146,0.758-9.207-0.881-4.068c-1.91,5.979-0.205,9.799-5.371,15.769c-0.021-2.377-1.717-4.656,0.346-6.013
	c-0.352,8.869,4.055-4.864,3.912-9.817c-1.127-3.072-0.906-8.271-2.758-10.205c-0.199,6.358,2.01,8.938,1.301,16.14L706.93,491.6z
	 M702.741,525.51c-0.783,5.053,1.354,14.609,2.758,10.205c-1.367-4.969,1.1-1.271,1.574-7.947c-0.068,1.109,0.77,2.326,1.109,0.064
	c-2.184-1.406-0.191-9.408-2.76-10.205c-0.357,3.73-1.107,6.66-2.68,7.89L702.741,525.51z M682.071,574.55
	c0.363-2.234,1.414-3.047,2.455-3.879c-1.787,5.455,3.998,7.133,0.881,4.072c-2.498-7.688-1.271-10.037-4.639-16.34
	c-3.711,7.02,2.199,12.979,1.311,16.148L682.071,574.55z M688.28,582.95c-0.105-4.086,3.188,0.598,3.219,2.192
	c-3.57,2.568-4.139,9.039-4.025,11.826c0.566-4.152,2.836,3.146,3.564-3.812c-1.223-0.5-1.604-2.322-1.992-4.14
	c2.303-0.457,2.492-5.293,4.793-5.752c-2.865,8.955,1.662-3.373,3.221,2.195c-0.832-13.33-7.404-1.922-9.656-6.582
	c0.672,0.15,1.299,0.371,0.994,2.066c-0.619-0.052-1.359,1.55-0.119,2L688.28,582.95z M694.719,587.34
	c2.023,3.42,3.568,5.832,5.561,0.32c1.115,3.033,0.998,5.121-0.461,8.012c3.479-0.018,3.449,3.68,6.209,8.394
	c-2.07-10.61-6.971-24.83-11.312-16.722L694.719,587.34z M697.09,623.64c-1.971-9.631-5.367-17.01-8.621-24.604
	c2.051,9.51,3.41,20.09,8.619,24.609L697.09,623.64z M739.28,704.439c-3.236-11.849,6.928-7.521,10.699-11.439
	c-8.266-19.711-10.576-48.83-14.631-75.188c-6.979-0.5-12.9-2.675-18.668-5.095c5.01,19.604-5.539,39.402-5.225,51.941
	c0.385,15.188,8.189,15.756,13.834,30.934c3.305,1.453,9.723-2.012,11,2.646C727.54,697.77,733.09,701.74,739.28,704.439z
	 M791.411,709.45c2.727-0.67,2.207,3.795,5.441,2.321c-0.238-3.473,1.943-5.041,0.348-6.01c0.201,2.443-3.609,6.72-3.449,1.812
	c2.297-3.182,6.393-3.996,2.688-7.885c3.645-0.146,5.076,5.016,5.787-3.687c-9.658,1.76-4.939,6.11-10.818,13.45L791.411,709.45z
	 M808.549,702.4c-3.311-5.75-7.459,1.129-8.24,7.561c2.857-0.045,5.363-0.83,6.898-3.621c-1.643-0.438-4.146,0.482-4.332-2.256
	c2.73-1.072,7.922,2.979,9.012-1.492c-6.5-4.233,4.674-3.369,1.455-5.942c-2.02,1.039-6.391-2.795-6.783,1.617
	c1.34,0.312,2.59,0.75,1.988,4.132L808.549,702.4z M740.272,706.5c5.221-6.994,10.322,10.33,14.564-1.17
	c-3.66-9.53-10.279-9.19-14.568,1.17H740.272z M762.741,703.78c0.27-3.111-3.152-1.572-1.111-0.064
	c1.223,0.494,1.604,2.322,1.992,4.135c-1.326,0.238-3.135-0.524-3.449,1.812c1.971,4.295,4.744,0.336,5.787-3.688
	c-5.588,2.312,3.658-10.801-0.764-6.069c-0.371,2.229-1.42,3.04-2.461,3.87L762.741,703.78z M810.311,710.54
	c0.836,3.768-6.434,0.863-2.451,3.877c10.08-2.59,24.58-1.95,2.449-3.88L810.311,710.54z M704.891,720.54
	c8.037-1.744,15.438,7.113,22.232,1.281c-1.197-5-3.562,3.412-4.332-2.263c0.322-3.325,9.129-0.145,5.789-3.684
	c-10.32,0.22-15.898-2.08-23.689,4.66V720.54z M702.2,728.42c2.973-0.682,12.09-0.156,9.238-5.494c-0.9,6.33-9.82-3.95-9.24,5.49
	L702.2,728.42z M704.081,734.56c1.471-4.521,12.25,3.117,14.797-5.178c-2.086-0.01-2.264-1.674-0.881-4.065
	c-3.041,4.96-14.43,4.38-13.92,9.25L704.081,734.56z M743.571,726.79c-2.77,7.863-16.051-7.922-15.908,5.115
	c2.449-4.695,9.963-5.877,9.889,2.577c0.377-2.952,2.793-1.688,4.562-1.745c-1.67-5.512,5.119-3.602,1.459-5.95L743.571,726.79z
	 M784.581,731.16c-2.619-7.394-12.955,6.412-14.799,5.176c1.639,4.08,13.818-7.96,14.799-5.18V731.16z M760.891,735.82
	c-0.754,6.147-5.359-5.604-6.785,1.619c8.557,0.981-3.697,1.819-0.23,4.002c2.73,0.238,9.469-2.54,7.021-5.62L760.891,735.82z
	 M779.44,742.92c1.902-5.738,8.045,7.664,9.01-1.49c-0.838-0.5-2.189-0.184-2.109-2.129c0.893-0.397,2.197,0.07,2.342-1.875
	c-3.814,1.049-10.18-3.178-12.346,1.299c1.291,0.39,3.178-0.164,3.223,2.191c-0.619-0.03-1.359,1.55-0.119,2.01V742.92z
	 M702.62,740.5c-0.898,8.096,6.801,2.604,9.775,4.578c0.42-8.62-6.699-6.4-9.779-4.58L702.62,740.5z M812.45,750.85
	c-4.549,1.027-11.67-3.28-14.566,1.172c4.553-1.028,11.67,3.28,14.57-1.17L812.45,750.85z"/>
<path fill="#292A3A" d="M616.19,202.16c-2.205-2.661-4.812-5.053-3.826-7.581c-3.664-2.517-5.164-10.531-7.494-13.562
	c-3.213,2.775-4.01,8.346-5.854,11.418c-0.482-0.174-0.713,0.611-0.771,1.135c0.451,0.75,0.881,1.548,1.287,2.412
	c1.135,2.416,1.443,4.937,1.752,7.666c0.434,0.09,1.143-0.28,1.047-0.621c3.811,0.01,9.631,0.99,13.85-0.881L616.19,202.16z
	 M612.799,200.96c-3.244,0.654-6.611,1.901-9.492,0.845c1.816-1.9,5.736-1.147,5.402-3.506c-2.031-0.551-4.506,0.979-6.604,0.742
	c0.625-2.604,5.955-1.188,5.551-4.189c-1.689-1.597-4.666,2.842-6.191,0.472c0.752-1.869,5.121-2.968,3.645-5.312
	c-2.133,0.186-2.535,2.125-4.99,3.234c0.205-3.303,2.73-6.104,5.471-8.864C607.219,190.891,609.999,194.991,612.799,200.96
	L612.799,200.96z"/>
<path fill="#292A3A" d="M561.809,159.63c-3.283,0.695-3.387,2.981-1.996,6.011c3.094-0.976,1.166-1.383,0.396-2.806
	c1.896-1.125,2.58,0.181,3.205,1.601c2.92-1.17-1.01-4.18-1.609-4.799L561.809,159.63z"/>
<path fill="#292A3A" d="M540.481,186.45c-4.82-5.347-3.041-12.165,3.604-14.325c18.82-6.109,11.439,31.01-3.6,14.33L540.481,186.45z
	 M543.19,173.02c-1.873,3.621,3.416,1.365,4.473,2.694c1.561,2.093-0.674,4.179,0.887,6.271c-2.393,2.166-4.779,2.162-7.166-0.01
	c0.928,6.521,9.514,7.678,13.438,0.916c-0.07-5.709-6.75-10.39-11.631-9.869V173.02z"/>
<path fill="#292A3A" d="M578.991,163.939c2.438,3.812,8.818-0.291,10.818,4.396c1.551-3.892-6.18-6.25-10.818-4.399V163.939z"/>
<path fill="#292A3A" d="M590.09,184.57c-9.412,16.15-30.1-13.77-6.514-14.473c7.41,5.198,9.359,9.58,6.51,14.469L590.09,184.57z
	 M578.5,172.6c-4.328,3.404,7.393,2.736,3.76,7.621c-1.928,3.516-4.293,3.84-7.098,0.979c0.076,4.353,7.354,5.729,9.85,5.877
	c9.24-6.42,0.029-15.729-6.51-14.479L578.5,172.6z"/>
<path fill="#292A3A" d="M601.04,173.98c2.811-0.17,8.303-2.666,3.234,2.365c3.467,1.687,5.357-4.453,2.965-6.765
	C603.159,170.741,604.829,171.15,601.04,173.98L601.04,173.98z"/>
<path fill="#292A3A" d="M557,206.01c-3.723-7.91-1.338-13.668,10.002-14.029c26.699-0.84-0.42,34.381-10,14.03L557,206.01z
	 M558.2,197.6c-2.834,14.234,17.328,15.596,18.83,4.39C575.299,191.639,564.68,192.139,558.2,197.6L558.2,197.6z"/>
<path fill="#292A3A" d="M544.581,204.82c-1.18-2.928-4.186,1.009-4.805,1.604c1.635,1.405,2.51,4.333,6.01,1.998
	c-1.16-0.689-2.971-2.66-1.211-3.6L544.581,204.82z"/>
<path fill="#292A3A" d="M560.6,200.8c1.25,9.136,13.918,5.362,14.422-0.813c-4.039-5.01-7.08-0.158-14.422,0.812V200.8z"/>
<path fill="#292A3A" d="M551.34,219.221c-6.246,0.646-0.449,10.213,1.607,4.805c-0.428-1.155-1.783-0.438-2.811-0.396
	c0.371-1.47,2.352-2.149,1.201-4.399L551.34,219.221z"/>
<path fill="#292A3A" d="M575.379,217.42c0.895,0.893,1.773,1.796,3.207,1.602c0.275,1.473-1.854,1.744-3.203,2.403
	c0.996,2.017,2.982,2.048,5.609,0.798c-0.92-3.511-2.049-6.601-5.619-4.801L575.379,217.42z"/>
<path fill="#292A3A" d="M594.26,213.59c0.549,4.441,5.65,2.901,6.812,0.395c-0.658-2.691-2.266-3.491-4.812-2.397
	c2.893,2.92,1.371,1.052-2,2.011V213.59z"/>
<path fill="#292A3A" d="M614.29,213.57c-0.979,3.385,2.41,4.179-4.002,4.01c1.932,2.146,4.77,2.479,8.412,1.193
	c-0.26-4.17-3.141-3.08-4.41-5.2V213.57z"/>
<path fill="#292A3A" d="M570.2,233.65c-2.441,1.865,1.316,7.828,4.412,5.203c-0.662-1.33-0.449-2.227,0.396-2.805
	c-0.801-1.41-2.793-0.412-2.4,0.805c-1.48,0.278-1.75-1.852-2.41-3.201L570.2,233.65z"/>
<path fill="#292A3A" d="M594.27,229.609c-1.604,0.535-3.201,1.072-4.807,1.605c1.221,1.568,2.789,2.436,4.012,4.003
	c2.021-0.989,2.051-2.979,0.801-5.608H594.27L594.27,229.609z"/>
<path fill="#292A3A" d="M569.37,147.12c5.504,9.676,20.742,5.124,26.438,3.182c2.312,3.488-1.438,4.669-0.227,6.677
	c1.174-0.025,14.857,7.649,19.863,4.121c2.07,4.037-3.27,4.375-1.195,8.414c2.559,2.229,7.277,3.896,6.816,8.405
	c0.988-2.168,2.83-3.421,7.607-1.209c-2.908,3.133-6.711,7.112-0.793,9.615c3.85-4.085,8.518-7.763,13.609-11.228
	c3.445,10.494,4.32,28.104,4.041,40.053c-7.014,0.679-10.777-5.148-16.828-6.396c-1.529,2.889,1.996,2.729,2.41,7.208
	c-9.299,0.248-10.834,7.114-9.605,15.229c-7.473-2.567-14.965,4.603-13.207,12.431c-4.205,2.411-11.135,4.319-16.391,1.95
	c-0.705,2.986-0.713,5.197-4.832,6.479c-3.803-8.115-16.613-9.17-22.031-1.982c-3.178-9.372-12.484-13.803-21.24-11.596
	c-1.826-3.584,2.178-4.258,1.602-7.213c-4.807-3.078-6.521-12.344-14.029-10.004c2.4-6.388,0.83-17.601-4.826-22.426
	c6.459-5.338,8.457-15.893,1.982-22.033c8.717-1.057,15.58-10.388,17.207-20.441c5.959,7.5,19.318-3.989,23.629-9.229V147.12z
	 M546.95,163.96c1.146,3.048,5.262,0.151,6.412,3.199c0.225,0.704-7.785,1.022-10.414,0.81
	c-29.203,35.611,10.512,89.693,54.938,72.452c18.217-7.069,36.689-30.833,25.189-56.5c-11.932-26.601-47.551-39.989-76.131-19.96
	L546.95,163.96z M641.09,177.9c-5.338,3.342-9.424,7.309-13.607,11.227c2.123,2.266,4.998-3.417,9.609-3.213
	c2.605,5.638-7.113,5.126-9.207,8.42c3.055,1.909,9.207-2.404,10.418,3.195c-1.041,4.507-5.844-0.135-8.811,1.609
	c1.895,2.887,6.318,0.713,8.014,4c0.014,5.938-5.127,0.109-8.811,1.607c3.578,4.867,9.479,5.074,13.627,8.8
	c3.479-9.96-1.9-24.319-1.23-35.659L641.09,177.9z"/>
<path fill="#292A3A" d="M616.19,195.221c0.564,2.205,2.314,2.041,2.807,4.402c3.57-0.221,1.619-3.195,4.002-4.01
	c-1.049-2.569-3.889-1.569-6.809-0.389V195.221z"/>
<path fill="#292A3A" d="M467.77,113.391c1.326-0.231,1.412,0.775,2.465,0.82c-0.496,1.693,1.322,5.707-1.645,4.928
	c-0.336-1.979,1.5-1.785,0.82-4.106c-3.062-0.873-1.299,3.081-4.107,2.464c0.49-1.7,1.74-2.65,2.473-4.1L467.77,113.391z"/>
<path fill="#292A3A" d="M448.879,118.32c-1.17,3.266-6.018,2.604-10.678,4.106c0.859-4.069,5.6-4.27,10.68-4.11L448.879,118.32z"/>
<path fill="#292A3A" d="M443.86,124.63c13.727-3.333,16.537,15.783,6.266,18.563c-9.279,2.521-18.84-15.5-6.27-18.561L443.86,124.63
	z M448.639,125.859c-10.365-2.448-13.666,15.619-0.484,15.14c-3.953-0.549-4.076-2.435-3.959-4.406
	c0.35-5.911,8.293-3.891,10.566-1.53c0.4-3.33-1.77-8.181-6.121-9.201L448.639,125.859z"/>
<path fill="#292A3A" d="M430.809,125.71c-0.121,2.043-2.777,0.24-3.283,0c-1.189,3.106,2.258,1.576,1.643,4.106
	c-2.582,0.119-2.822-2.105-3.285-4.106c1.061-1.12,3.891-1.12,4.939,0H430.809z"/>
<path fill="#292A3A" d="M427.52,141.32c2.477,1.231-1.828,2.457-2.465,3.285c0.539,2.461,1.756-0.785,3.285,0
	c-0.121,1.797-2.066,1.765-4.104,1.644c-0.701-3.431,2.219-3.25,3.277-4.92L427.52,141.32z"/>
<path fill="#292A3A" d="M458.741,144.6c6.178-2.723,13.148-1.498,13.963,4.107c1.85,12.75-21.881,9.311-13.961-4.109L458.741,144.6z
	 M471.059,152c0.479-2.666-0.559-3.82-0.818-5.75C453.499,137.02,459.709,164.98,471.059,152L471.059,152z"/>
<path fill="#292A3A" d="M460.379,147.07c3.273,0.559,5.877,1.789,9.857,1.643c-0.723,5.27-10.99,5.301-9.861-1.64L460.379,147.07z"
	/>
<path fill="#292A3A" d="M481.741,156.92c1.229-1.965,4.107,1.303,4.104,3.286c-1.049,1.123-3.877,1.123-4.928,0
	c0.123-2.043,2.783-0.24,3.285,0c0.141-2.06-1.26-2.57-2.459-3.29L481.741,156.92z"/>
<path fill="#292A3A" d="M442.309,157.74c0.221,2.682-3.188,1.74-3.283,4.105c2.525,0.611,1.576-2.255,4.105-1.644
	c0.076,2.54-2.479,2.446-4.928,2.464c-0.09-3.102,1.609-4.41,4.109-4.932L442.309,157.74z"/>
<path fill="#292A3A" d="M429.991,154.21c0.217,2.683-3.189,1.741-3.287,4.106c2.529,0.61,1.58-2.254,4.105-1.645
	c0.076,2.541-2.479,2.448-4.928,2.465c-0.09-3.109,1.609-4.421,4.109-4.931V154.21z"/>
<path fill="#292A3A" d="M461.2,165.96c3.555,1.914,0.381,3.833,4.105,0.821c0.217,2.679-0.977,3.953-3.283,4.105
	c0.02-1.939-1.41-2.421-0.82-4.931L461.2,165.96z"/>
<path fill="#292A3A" d="M498.991,152c-3.912-3.422-3.975-15.1-0.822-19.713c-6.604-1.885-6.924-10.053-12.32-13.143
	c0.625-0.793,3.076-5.815,1.232-4.826c-3.697,1.982-10.938-2.717-13.553-4.209v-0.002c-0.639-0.006-7.188-1.196-7.717-1.196
	c-0.283,0-0.551-0.028-0.805-0.073c0.105,0.15-2.6-0.48-4.623-0.372c-0.734-1.727-1.275-3.651-2.465-4.928
	c-2.023,0.714-3.561,1.915-3.285,4.928c-0.748-0.098-4.672-0.042-4.947-0.096c0.008,0.034,0.018,0.062,0.021,0.096
	c-2.648,0.062-8.836,3.097-9.021,3.187c-0.006,0.033-0.012,0.065-0.018,0.1c-5.758,3.109-7.023-0.62-12.32-1.643
	c-0.188,3.201,1.768,4.258,2.467,6.57c-5.891,3.147-9.564,8.508-13.145,13.965c-1.553-1.631-2.879-1.4-4.928-0.822
	c-0.754,5.428,7.387,6.277,3.285,12.322c-5.332-2.607-10.273-5.606-17.25-6.572c-0.512,6.32,4.469,14.549,1.643,21.354
	c3.654,2.63,3.125,5.812,2.465,11.5c7.553-1.209,12.791-4.731,18.07-8.214c2.217,7.127,8.908,10.807,5.75,18.895
	c3.85,0.838,4.672-1.354,6.572-2.465c5.402,5.547,16.479,5.422,22.178,10.678c5.729-3.912,15.803-6.73,23-6.57
	c0.955-4.991,6.768-10.977,12.32-11.5c-0.869-7.029,2.27-14.62,8.211-17.27L498.991,152z M429.991,111.75
	c2.09,0.102,3.184,1.195,3.285,3.286c-2.102-0.11-3.191-1.2-3.291-3.29L429.991,111.75z M413.559,132.279
	c0.568-2.574,2.191-1.07,4.107-0.82c0.139,3.67-2.891,2.12-4.111,0.82H413.559z M404.53,166.779
	c-1.496-10.827-1.318-19.047-4.93-29.568c6.301,1.368,12.348,2.987,15.607,7.395c-4.416,0.67-6.73-1.666-9.857,0
	c0.059,4.6,7.125,2.185,9.857,4.105c0.018,4.673-8.125,1.186-9.037,4.93c2.137,4.543,8.279-2.236,11.5,0.82
	c-2.703,2.225-7.527,2.33-9.854,4.93c1.664,3.58,6.438-1.008,10.678,0c-3.049,4.069-8.859,5.369-13.959,7.389H404.53L404.53,166.779
	z M427.52,178.279c-0.104-1.473,1.006-1.731,0.82-3.284c1.475-0.104,1.732,1.005,3.285,0.819c-0.75,1.439-1.529,2.851-4.109,2.461
	L427.52,178.279z M483.379,170.061c-1.971,2.061-2.992,3.627-4.104,5.75c-1.014-0.356-1.689-1.052-1.646-2.463
	c-2.508,1.52,0.949,3.9,0,6.569c-1.861-0.876-2.98-2.492-3.285-4.928h-4.928c0.34,1.849,4.504-0.123,4.107,2.464
	c-0.514,3.597-5.051,3.168-8.217,4.105c0.438-0.66,0.857-1.332,0.822-2.463c-2.016,5.897-10.271,1.977-12.322,6.569
	c-0.699-2.619,0.719-3.117,1.646-4.106c-6.219,3.184-8.279-1.483-14.787-1.644c0.291-1.079,1.447-1.292,1.645-2.464
	c-2.611,2.104-3.318,1.005-6.568,0c0.02-0.801,1.004-0.639,1.643-0.821c-5.936-0.354-11.631-6.601-13.143-13.964
	c-2.506-5.089-5.023-9.504-5.75-14.784c-3.148-22.87,12.283-32.635,28.748-37.784h8.215c1.844-0.346,0.02-4.358,1.643-4.93
	c1.18,1.014,1.559,2.825,1.645,4.93c8.639-1.438,18.377,2.918,23.818,7.393c1.904,0.609-6.111-0.497-7.393,1.643
	c1.133,2.473,6.018-0.109,8.213,0c19.352,11.11,9.98,40.53,0.031,50.91L483.379,170.061z"/>
<path fill="#292A3A" d="M448.18,177.38c-3.361,0.711-2.096-4.047-0.938-4.913c2.043,0.124,0.238,2.782,0,3.286
	c2.658,1.017,0.627-2.657,3.285-1.644c0,0.549,0.773,1.322,0.82,0.82c0.939,1.369-1.93,2.659-3.17,2.439L448.18,177.38z"/>
<path fill="#292A3A" d="M480.25,125.3c22.848,0.38,0.932,30.757-5.594,9.946c-1.232-3.928,1.869-10.869,8.012-12.316
	c1.506,1.125,3.385,0.829,4.619,3.002c-2.441,0.149-4.131-2.591-7.041-0.631L480.25,125.3z M481.79,126.3
	c-7.352,2.334-6.93,11.562-1.684,13.365c-6.334-13.416,14.389-5.019,4.494,1.172c9.16-3.2,3.25-13.95-2.818-14.53L481.79,126.3z"/>
</svg>
