<?xml version="1.0" encoding="utf-8"?>
<!-- Generator: Adobe Illustrator 15.0.2, SVG Export Plug-In . SVG Version: 6.00 Build 0)  -->
<!DOCTYPE svg PUBLIC "-//W3C//DTD SVG 1.1//EN" "http://www.w3.org/Graphics/SVG/1.1/DTD/svg11.dtd">
<svg version="1.1" id="Layer_1" xmlns="http://www.w3.org/2000/svg" xmlns:xlink="http://www.w3.org/1999/xlink" x="0px" y="0px"
	 width="360px" height="128px" viewBox="0 0 360 128" enable-background="new 0 0 360 128" xml:space="preserve">
<g>
	<path fill="#FFFFFF" d="M117.837,56.722c0.204-4.066,0.407-7.825,0.509-11.484c-5.387,0.204-10.873,0.408-15.649,0.408
		c-1.829,0-2.541-0.306-2.541-1.322c0-0.406,0.101-1.016,0.305-1.727c1.221,0.304,3.659,0.406,6.809,0.406
		c3.151,0,7.113,0,11.178-0.204c0.204-4.165,0.508-8.028,0.917-11.686c0.404-4.268,1.421-8.333,2.947-12.195
		C103.508,16.682,80.745,7.943,59.099,7.943c-21.645,0-32.214,12.296-32.214,24.084c0,10.975,9.044,21.544,27.031,21.544
		c18.802,0,32.417-13.516,35.57-30.995c0.1-0.712,0.404-0.915,0.709-0.915s0.509,0.203,0.509,0.203
		c-0.915,19.207-19.715,35.975-38.21,35.975c-19.104,0-27.946-10.975-27.946-23.272c0-15.243,13.617-32.315,38.006-32.315
		c20.427,0,44.104,9.654,61.38,13.211c4.776-9.35,13.109-16.057,24.287-16.057c5.081,0,7.419,2.134,7.419,5.082
		c0,5.894-9.654,14.938-25.202,14.938h-2.033c-0.914,3.556-1.422,7.316-1.83,10.873c-0.507,4.37-0.71,8.334-0.913,12.195
		c3.964-0.203,7.724-0.203,10.771-0.203c3.761,0,4.878,0,4.878,1.219c0,0.407-0.205,1.118-0.408,1.931
		c-2.234-0.407-5.486-0.508-9.247-0.508c-1.931,0-3.963,0-6.097,0.101c-0.305,4.574-0.508,8.943-1.22,13.211
		c-3.658,22.357-17.173,38.109-39.125,38.109c-12.296,0-24.897-5.081-24.897-20.122c0-0.812,0.609-1.32,1.625-1.32
		c0,13.617,8.435,20.02,22.763,20.02C107.573,94.932,116.618,76.539,117.837,56.722z M129.322,16.377
		c1.726,0.203,3.352,0.305,4.979,0.305c11.584,0,18.189-6.605,18.189-11.179c0-2.439-1.829-4.268-5.791-4.268
		C136.943,1.235,131.963,7.943,129.322,16.377z"/>
	<path fill="#FFFFFF" d="M152.092,72.676c0.508,4.37,1.525,8.435,3.862,8.435c5.689,0,8.028-13.007,8.232-16.564h0.709
		c-0.507,5.588-2.642,18.495-9.959,18.495c-2.539,0-4.266-2.133-5.384-5.182c-1.829,2.743-4.167,4.471-7.215,4.471
		c-6.2,0-7.622-8.943-7.622-17.072c0-5.792,0.71-11.28,1.017-12.804c0.305-1.728,1.828-2.744,3.657-2.744
		c0.61,0,1.322,0.101,2.034,0.405c-0.408,1.525-2.034,11.382-2.034,19.512c0,6.098,0.915,11.281,3.964,11.281
		c2.541,0,4.471-1.525,5.997-3.862c-1.016-3.252-1.322-7.419-1.322-11.585c0-9.35,2.54-14.837,4.471-14.837
		c1.22,0,2.135,2.032,2.135,6.503C154.633,61.802,153.921,67.798,152.092,72.676z M151.991,70.746
		c1.117-4.27,1.626-9.249,1.626-13.009c0-3.455-0.306-5.183-0.61-5.183c-0.509,0-1.22,3.862-1.22,11.077
		C151.787,65.156,151.787,67.9,151.991,70.746z"/>
	<path fill="#FFFFFF" d="M191.625,64.546c-0.307,4.574-1.321,9.248-3.051,12.804c-1.32,2.642-3.861,5.386-6.908,8.435
		c0.101,1.93,0.101,3.963,0.101,6.3c0,24.897-8.027,35.874-13.719,35.874c-3.252,0-5.69-3.455-5.69-9.857
		c0-12.805,7.722-21.747,14.835-29.166c0-5.081,0-10.061,0.103-15.142c-1.728,5.284-4.472,9.247-8.13,9.247
		c-5.793,0-8.13-5.182-8.13-11.381c0-9.248,5.283-20.732,12.5-20.833c2.032,0,3.456,1.423,4.369,3.76l0.305-2.642
		c0.305-1.525,1.626-2.236,2.946-2.236c0.61,0,1.322,0.203,2.135,0.609c-1.524,2.439-2.033,12.906-2.033,17.277
		c0,5.893,0.305,10.365,0.408,16.767c2.539-2.642,4.674-5.081,5.995-7.419c1.829-3.455,2.946-7.926,3.252-12.397H191.625z
		 M177.193,97.472v-6.909c-6.401,6.808-12.704,15.445-12.704,26.93c0,5.08,2.034,8.535,4.474,8.535
		C172.519,126.027,176.991,118.609,177.193,97.472z M177.296,68.915c0,0,0.304-9.145,0.304-9.856
		c-0.507-4.065-1.729-7.113-3.86-7.113c-4.879,0-7.725,11.178-7.725,19.714c0,5.283,1.117,9.553,3.556,9.553
		C173.74,81.213,176.279,75.42,177.296,68.915z"/>
	<path fill="#FFFFFF" d="M204.733,55.095c0.507-0.101,1.017-0.202,1.524-0.202c1.728,0,3.049,0.914,3.049,2.641
		c0,3.252-1.523,12.093-1.523,17.785c0,3.455,1.117,5.792,3.148,5.792c5.692,0,8.029-13.007,8.232-16.564h0.711
		c-0.508,5.588-2.643,18.495-9.959,18.495c-3.148,0-6.199-2.846-6.199-8.333c-1.727,4.776-4.369,8.333-7.824,8.333
		c-5.793,0-8.129-5.182-8.129-11.381c0-9.248,5.283-20.833,12.5-20.833C202.396,50.827,203.92,52.555,204.733,55.095z
		 M203.819,70.034c0.203-3.049,0.609-5.996,0.712-8.741c-0.204-5.08-1.626-9.348-4.064-9.348c-4.878,0-7.725,11.178-7.725,19.714
		c0,5.283,1.119,9.553,3.557,9.553C200.16,81.213,202.701,76.029,203.819,70.034z"/>
	<path fill="#FFFFFF" d="M220.283,68.307c0,7.113,2.543,13.617,8.943,13.617c6.504,0,9.654-9.045,10.265-17.377h0.711
		c-0.608,9.349-4.064,19.308-12.093,19.308c-8.943,0-12.5-7.011-12.5-14.634c0-9.247,5.285-19.511,12.703-19.511
		c3.76,0,5.386,3.353,5.386,6.707s-1.626,6.707-4.368,6.707c-1.423,0-2.339-1.117-2.339-2.439c0-1.728,1.524-3.76,4.98-4.065
		c0,0,0.101-0.609,0.101-1.321c0-1.626-0.508-4.268-3.557-4.268C223.739,51.031,220.283,60.075,220.283,68.307z"/>
	<path fill="#FFFFFF" d="M241.83,68.408c0,7.316,1.016,12.702,3.963,12.702c5.692,0,8.028-13.007,8.232-16.564h0.711
		c-0.508,5.588-2.643,18.495-9.959,18.495c-5.387,0-7.217-7.926-7.217-17.682c0-3.761,0.205-7.826,0.713-11.891
		c0.305-2.337,2.031-3.252,3.455-3.252c0.711,0,1.319,0.306,1.319,0.711C242.339,56.925,241.83,63.124,241.83,68.408z"/>
	<path fill="#FFFFFF" d="M255.955,68.104c0,7.113,2.338,13.516,6.302,13.516c5.589,0,8.027-6.707,8.027-13.516
		c0-1.83-0.202-3.76-0.609-5.488c-1.117,0.407-2.234,0.609-3.252,0.609c-4.878,0-7.012-3.15-7.012-5.995
		c0-2.439,1.524-4.776,4.472-4.776c3.558,0,5.996,3.557,7.113,8.333c1.423-0.61,3.047-1.626,4.674-3.15l0.508,0.509
		c-1.829,1.726-3.455,2.947-4.979,3.76c0.305,1.727,0.509,3.557,0.509,5.385c0,8.029-3.15,16.362-9.858,16.362
		c-7.521,0-10.772-6.401-10.772-13.72c0-8.942,4.878-19.104,12.806-20.222c0.202,0,0.711,0.101,0.711,0.507
		C258.497,52.454,255.955,60.685,255.955,68.104z M269.369,61.293c-1.016-4.064-3.149-7.114-5.894-7.114
		c-1.626,0-2.54,1.119-2.54,2.542c0,2.134,2.031,4.877,6.098,4.877C267.744,61.599,268.558,61.498,269.369,61.293z"/>
	<path fill="#FFFFFF" d="M287.662,77.656c0,2.031-1.218,4.368-3.556,4.368c-1.523,0-2.336-1.422-2.336-2.946
		c0-2.032,1.218-4.37,3.557-4.37C286.952,74.708,287.662,76.131,287.662,77.656z"/>
	<path fill="#FFFFFF" d="M312.968,72.676c0.509,4.37,1.525,8.435,3.861,8.435c5.69,0,8.028-13.007,8.232-16.564h0.71
		c-0.509,5.588-2.642,18.495-9.959,18.495c-2.539,0-4.267-2.133-5.385-5.182c-1.83,2.743-4.167,4.471-7.215,4.471
		c-6.2,0-7.623-8.943-7.623-17.072c0-5.792,0.711-11.28,1.018-12.804c0.304-1.728,1.828-2.744,3.658-2.744
		c0.608,0,1.32,0.101,2.032,0.405c-0.408,1.525-2.032,11.382-2.032,19.512c0,6.098,0.913,11.281,3.963,11.281
		c2.54,0,4.471-1.525,5.996-3.862c-1.018-3.252-1.322-7.419-1.322-11.585c0-9.35,2.54-14.837,4.471-14.837
		c1.221,0,2.135,2.032,2.135,6.503C315.508,61.802,314.798,67.798,312.968,72.676z M312.866,70.746
		c1.118-4.27,1.627-9.249,1.627-13.009c0-3.455-0.307-5.183-0.612-5.183c-0.508,0-1.218,3.862-1.218,11.077
		C312.663,65.156,312.663,67.9,312.866,70.746z"/>
	<path fill="#FFFFFF" d="M335.732,73.794c0,6.401-4.98,10.061-9.45,10.061c-5.286,0-7.521-3.353-7.521-6.707
		c0-3.456,2.339-7.013,6.198-7.013c1.119,0,1.729,0.407,1.729,1.018c0,0.305-0.102,0.508-0.405,0.812
		c-0.509-0.406-1.018-0.508-1.526-0.508c-2.539,0-3.86,2.134-3.86,4.471c0,2.744,1.829,5.793,5.792,5.793
		c2.744,0,5.386-2.033,5.386-6.708c0-3.659-3.962-9.45-6.198-15.242v1.523c0,1.729-0.102,3.659-0.406,5.894h-0.713
		c0.306-2.337,0.408-4.267,0.408-5.995c0-1.524-0.103-2.845-0.305-4.268c-0.408-1.321-0.508-2.541-0.508-3.76
		c0-5.793,2.641-8.028,4.572-8.028c1.117,0,1.932,0.712,1.932,1.829c0,1.322-1.018,2.236-3.252,4.167
		C327.604,58.145,335.732,65.766,335.732,73.794z"/>
</g>
</svg>
